<svg width="26" height="26" viewBox="0 0 26 26" fill="none" xmlns="http://www.w3.org/2000/svg">
<path d="M10.8477 2.0339C15.3563 2.0411 19.1267 5.46186 19.5708 9.9483C20.0153 14.4347 16.989 18.5288 12.5698 19.4199C8.1502 20.3114 3.77382 17.7106 2.44455 13.4025C1.11528 9.09449 3.26449 4.48008 7.41755 2.72585C8.50275 2.26681 9.66942 2.03147 10.8477 2.0339ZM10.8477 0C4.8569 0 0 4.85678 0 10.8475C0 16.8381 4.8569 21.6949 10.8477 21.6949C16.8385 21.6949 21.6954 16.8381 21.6954 10.8475C21.6954 4.85678 16.8385 0 10.8477 0ZM24.9837 26C24.85 26.0003 24.7177 25.974 24.5942 25.9228C24.4708 25.8716 24.3588 25.7965 24.2646 25.7017L19.1119 20.5492C18.7267 20.15 18.7322 19.5157 19.1242 19.1233C19.5166 18.7309 20.1509 18.7254 20.5496 19.111L25.7023 24.2636C25.8445 24.4058 25.9412 24.587 25.9805 24.7842C26.0197 24.9814 25.9996 25.1858 25.9227 25.3716C25.8459 25.5575 25.7157 25.7165 25.5485 25.8283C25.3814 25.9402 25.1848 26 24.9837 26Z" fill="white" fill-opacity="0.54"/>
</svg>
