<svg xmlns="http://www.w3.org/2000/svg" width="30" height="30" viewBox="0 0 30 30"><defs><style>.a{fill:#222;}</style></defs><g transform="translate(-2.4 -0.6)"><path class="a" d="M391.833,441.4c-2.639,2.28-1.841-1.72-1.72-2.28s1.838-4,.58-4.577-5.14,2.28-5.14,2.28-.639.459-.58.58c.421.739,2.28-.58,2.28-.58s.639-.518.58,0a43.955,43.955,0,0,0-1.14,6.857c.28,1.52,2.68.881,4.559-1.14S391.833,441.4,391.833,441.4Zm0,0" transform="translate(-371.302 -421.083)"/><path class="a" d="M503.662,246.3a2,2,0,1,0-1.676-1.093A2,2,0,0,0,503.662,246.3Zm0,0" transform="translate(-484.662 -234.583)"/><path class="a" d="M28.39,25.733a14.825,14.825,0,0,0,4-10.138A14.995,14.995,0,1,0,17.395,30.59h14a1,1,0,0,0,.66-1.758Zm-10.995,2.86a13,13,0,1,1,12.992-13,12.869,12.869,0,0,1-4.118,9.478.993.993,0,0,0-.292.786,1.008,1.008,0,0,0,.412.733l2.38,2H17.395Zm0,0"/></g></svg>