<svg xmlns="http://www.w3.org/2000/svg" width="30" height="30" viewBox="0 0 30 30"><defs><style>.a{fill:#4f73a3;}</style></defs><g transform="translate(-160.098 -159.938)"><path class="a" d="M422.626,180.142a7.9,7.9,0,0,1-5.589-2.33L416,176.775l1.906-1.906,1.037,1.037a5.232,5.232,0,0,0,7.158.242l.061-.054a2.084,2.084,0,0,0,.168-.162l4.262-4.262a5.225,5.225,0,0,0,0-7.407l-.081-.081a5.225,5.225,0,0,0-7.407,0l-2.175,2.175a2.073,2.073,0,0,0-.162.168l-.842,1.05-2.1-1.683.869-1.057a4.547,4.547,0,0,1,.364-.391l2.175-2.175a7.919,7.919,0,0,1,11.225,0l.081.081a7.919,7.919,0,0,1,0,11.225l-4.262,4.262a4.706,4.706,0,0,1-.357.33,8.006,8.006,0,0,1-5.273,2.02Z" transform="translate(-244.773)"/><path class="a" d="M168.12,403.743a7.885,7.885,0,0,1-5.609-2.33l-.081-.081a7.919,7.919,0,0,1,0-11.225l4.262-4.262a4.721,4.721,0,0,1,.357-.33,7.926,7.926,0,0,1,10.862.33l1.037,1.064-1.906,1.906-1.037-1.037a5.232,5.232,0,0,0-7.158-.242l-.061.054a2.076,2.076,0,0,0-.168.162l-4.262,4.262a5.225,5.225,0,0,0,0,7.407l.081.081a5.225,5.225,0,0,0,7.407,0l2.175-2.175a2.076,2.076,0,0,0,.162-.168l.842-1.05,2.108,1.683-.875,1.057a4.549,4.549,0,0,1-.364.391l-2.175,2.175A7.885,7.885,0,0,1,168.12,403.743Z" transform="translate(0 -213.805)"/></g></svg>