<svg xmlns="http://www.w3.org/2000/svg" width="30" height="30" viewBox="0 0 30 30"><defs><style>.a{fill:#4f73a3;}.b{fill:#fff;}</style></defs><g transform="translate(-426 -113)"><circle class="a" cx="15" cy="15" r="15" transform="translate(426 113)"/><path class="b" d="M109.071,83.111A8.935,8.935,0,0,0,113.721,82v1.332h1.01V80.41c0-1.754-2.915-2.7-5.658-2.7s-5.66.947-5.66,2.7v7.961c0,1.754,2.915,2.7,5.658,2.7V90.064c-2.881,0-4.65-.986-4.65-1.692V85.978a8.948,8.948,0,0,0,4.65,1.116v-1.01c-2.881,0-4.65-.986-4.65-1.692V82a8.952,8.952,0,0,0,4.65,1.114Zm0-4.393c2.881,0,4.65.986,4.65,1.692s-1.769,1.692-4.65,1.692-4.65-.986-4.65-1.692,1.771-1.692,4.65-1.692Zm4.524,4.945c-2.506,0-3.816.964-3.816,1.916V90.7c0,.952,1.312,1.916,3.816,1.916,2.487,0,3.8-.95,3.816-1.9h0V85.579c0-.952-1.312-1.916-3.818-1.916Zm0,1.008c1.853,0,2.808.636,2.808.908s-.955.908-2.808.908-2.808-.636-2.808-.908.955-.908,2.808-.908Zm0,6.931c-1.853,0-2.808-.636-2.808-.908V89.474a7.086,7.086,0,0,0,5.616,0V90.7c0,.271-.955.908-2.808.908Zm0-2.559c-1.853,0-2.808-.636-2.808-.908V86.915a7.087,7.087,0,0,0,5.616,0v1.221c0,.271-.955.908-2.808.908Zm0,0" transform="translate(330.587 43.29)"/></g></svg>