<svg xmlns="http://www.w3.org/2000/svg" width="18" height="18" viewBox="0 0 18 18"><defs><style>.a{fill:#4f73a3;}</style></defs><path class="a" d="M9.026,2.525a8.087,8.087,0,1,1-3.048.594,8.068,8.068,0,0,1,3.048-.594Zm0-.9a9,9,0,1,0,6.36,2.636,8.973,8.973,0,0,0-6.36-2.636m.013,4.354a2.994,2.994,0,0,0-2.048.683,3.01,3.01,0,0,0-.93,1.969l1.159.137a2.369,2.369,0,0,1,.635-1.41,1.69,1.69,0,0,1,1.2-.451,1.75,1.75,0,0,1,1.261.5,1.56,1.56,0,0,1,.514,1.156,1.352,1.352,0,0,1-.175.67,3.852,3.852,0,0,1-.762.822,8.22,8.22,0,0,0-.81.787,2.682,2.682,0,0,0-.445.734,3.188,3.188,0,0,0-.187,1.146c0,.076,0,.187.006.34H9.543a4.344,4.344,0,0,1,.1-.978,1.652,1.652,0,0,1,.251-.533,5.443,5.443,0,0,1,.721-.721,5.256,5.256,0,0,0,1.1-1.235,2.247,2.247,0,0,0,.283-1.108,2.317,2.317,0,0,0-.8-1.775,3.092,3.092,0,0,0-2.153-.73m-.01,7.913a.692.692,0,1,0,.692.692.692.692,0,0,0-.692-.692" transform="translate(-0.023 -1.623)"/></svg>