<svg xmlns="http://www.w3.org/2000/svg" width="30" height="30" viewBox="0 0 30 30"><defs><style>.a{fill:#4f73a3;}</style></defs><path class="a" d="M134.3,122.452a1.184,1.184,0,1,1,2.368,0v9.868a4.342,4.342,0,0,1-4.342,4.342H111.009a4.342,4.342,0,0,1-4.342-4.342V112.19a4.342,4.342,0,0,1,4.342-4.342h10.262a1.184,1.184,0,1,1,0,2.368H111.009a1.974,1.974,0,0,0-1.974,1.974v20.13a1.974,1.974,0,0,0,1.974,1.974h21.314a1.974,1.974,0,0,0,1.974-1.974v-9.868ZM132.74,112.19l-3.323-3.53a1.184,1.184,0,0,1,1.725-1.623l5.2,5.526a1.184,1.184,0,0,1-.862,2h-5.944a5.724,5.724,0,0,0-5.5,5.921v7.1a1.184,1.184,0,1,1-2.368,0v-7.1a8.087,8.087,0,0,1,7.871-8.289Z" transform="translate(-106.667 -106.664)"/></svg>