<svg xmlns="http://www.w3.org/2000/svg" width="30" height="30" viewBox="0 0 30 30"><defs><style>.a{fill:#4f73a3;}.b{fill:#fff;}</style></defs><g transform="translate(-476 -474)"><circle class="a" cx="15" cy="15" r="15" transform="translate(476 474)"/><path class="b" d="M33.925,23.089a3.46,3.46,0,0,0-1.269-.672,8.263,8.263,0,0,0-1.269-.445v-3.58a1.227,1.227,0,0,1,1.117.445,1.817,1.817,0,0,1,.445,1.34h1.866a2.853,2.853,0,0,0-.3-1.416,3.736,3.736,0,0,0-.743-1.042,2.727,2.727,0,0,0-1.117-.6,3.517,3.517,0,0,0-1.269-.223V15.707h-.971v1.117a3.555,3.555,0,0,0-1.269.223,2.983,2.983,0,0,0-1.193.6,2.829,2.829,0,0,0-.819,1.042,3.033,3.033,0,0,0-.3,1.416,3.486,3.486,0,0,0,.3,1.567,3.025,3.025,0,0,0,.895,1.042,3.819,3.819,0,0,0,1.193.672c.445.147.743.3,1.193.445v4.1a1.6,1.6,0,0,1-1.492-.672,2.665,2.665,0,0,1-.445-1.79H26.614a3.793,3.793,0,0,0,.3,1.638,3.4,3.4,0,0,0,.819,1.193A3.514,3.514,0,0,0,29,29.041a4.884,4.884,0,0,0,1.492.3v1.269h.971V29.49a4.733,4.733,0,0,0,1.416-.3,2.522,2.522,0,0,0,1.193-.743,2.823,2.823,0,0,0,.819-1.193,3.793,3.793,0,0,0,.3-1.638,3.486,3.486,0,0,0-.3-1.567,3.958,3.958,0,0,0-.966-.961Zm-3.5-1.42c-.223-.076-.3-.147-.521-.223a4.651,4.651,0,0,1-.6-.3,3.176,3.176,0,0,1-.445-.521c-.147-.147-.147-.374-.147-.672a1.543,1.543,0,0,1,.445-1.269,1.907,1.907,0,0,1,1.193-.374v3.357h.071Zm2.24,5.744a1.983,1.983,0,0,1-1.34.521V23.984c.223.076.374.147.6.223a3.1,3.1,0,0,1,.672.374.981.981,0,0,1,.445.521,1.365,1.365,0,0,1,.147.819,1.7,1.7,0,0,1-.521,1.492Zm0,0" transform="translate(460.386 466.293)"/></g></svg>