<svg xmlns="http://www.w3.org/2000/svg" width="30" height="23" viewBox="0 0 30 23"><defs><style>.a{fill:#4f73a3;}</style></defs><path class="a" d="M67.214,175a1.012,1.012,0,0,0-1.071,1.071v4.286a1.012,1.012,0,0,0,1.071,1.071h2.143a1.012,1.012,0,0,0,1.071-1.071v-4.286A1.012,1.012,0,0,0,69.357,175Zm0-2.143h2.143a3.157,3.157,0,0,1,3.214,3.214v4.286a3.157,3.157,0,0,1-3.214,3.214H67.214A3.157,3.157,0,0,1,64,180.357v-4.286A3.157,3.157,0,0,1,67.214,172.857Zm10.714-10.714a1.012,1.012,0,0,0-1.071,1.071v17.143a1.012,1.012,0,0,0,1.071,1.071h2.143a1.012,1.012,0,0,0,1.071-1.071V163.214a1.012,1.012,0,0,0-1.071-1.071Zm0-2.143h2.143a3.157,3.157,0,0,1,3.214,3.214v17.143a3.157,3.157,0,0,1-3.214,3.214H77.929a3.157,3.157,0,0,1-3.214-3.214V163.214A3.157,3.157,0,0,1,77.929,160Zm10.714,10.714a1.012,1.012,0,0,0-1.071,1.071v8.571a1.012,1.012,0,0,0,1.071,1.071h2.143a1.012,1.012,0,0,0,1.071-1.071v-8.571a1.012,1.012,0,0,0-1.071-1.071Zm0-2.143h2.143A3.157,3.157,0,0,1,94,171.786v8.571a3.157,3.157,0,0,1-3.214,3.214H88.643a3.157,3.157,0,0,1-3.214-3.214v-8.571A3.157,3.157,0,0,1,88.643,168.571Z" transform="translate(-64 -160)"/></svg>