<svg xmlns="http://www.w3.org/2000/svg" width="30" height="30" viewBox="0 0 30 30"><defs><style>.a{fill:#4f73a3;}.b{fill:#fff;}</style></defs><g transform="translate(-786 -233)"><circle class="a" cx="15" cy="15" r="15" transform="translate(786 233)"/><path class="b" d="M109.043,90.06l3.591,1.538a.362.362,0,0,0,.5-.279l1.894-12.5a.362.362,0,0,0-.537-.363L101.212,86.2a.361.361,0,0,0,.026.634l2.977,1.386a.367.367,0,0,0,.4-.059l9.026-8.131-7.311,9.044a.323.323,0,0,0-.077.211l-.068,2.756a.362.362,0,0,0,.64.237l1.817-2.113a.34.34,0,0,1,.4-.1Z" transform="matrix(0.995, 0.105, -0.105, 0.995, 701.177, 151.464)"/></g></svg>