<svg xmlns="http://www.w3.org/2000/svg" width="50" height="50" viewBox="0 0 50 50">
  <defs>
    <style>
      .a {
        fill: #354c70;
      }
    </style>
  </defs>
  <g transform="translate(0 -0.067)">
    <path class="a"
      d="M45.117,50.064H4.883A4.883,4.883,0,0,1,0,45.181V31.216a1.953,1.953,0,0,1,3.906,0V45.181a.977.977,0,0,0,.977.977H45.117a.977.977,0,0,0,.977-.977V31.216a1.953,1.953,0,0,1,3.906,0V45.181A4.883,4.883,0,0,1,45.117,50.064ZM38.281,17.251a1.953,1.953,0,0,1-1.367-.586L25,4.8,13.086,16.665A1.968,1.968,0,0,1,10.3,13.882L23.633.65a1.953,1.953,0,0,1,2.783,0L39.648,13.931a1.953,1.953,0,0,1-1.367,3.32Z" />
    <path class="a"
      d="M474.029,56.1A2.029,2.029,0,0,1,472,54.076V19.029a2.029,2.029,0,0,1,4.058,0V54.076A2.029,2.029,0,0,1,474.029,56.1Z"
      transform="translate(-449.029 -16.074)" />
  </g>
</svg>
