<svg width="24" height="24" viewBox="0 0 24 24" fill="none" xmlns="http://www.w3.org/2000/svg">
<mask id="mask0_590_69" style="mask-type:luminance" maskUnits="userSpaceOnUse" x="0" y="0" width="24" height="24">
<path d="M24 0H0V24H24V0Z" fill="white"/>
</mask>
<g mask="url(#mask0_590_69)">
<path d="M2.6665 11.5053C2.6665 9.45893 2.6665 7.41377 2.66775 5.3686C2.669 4.00839 3.59939 2.93256 4.9812 2.69174C5.11751 2.66875 5.25756 2.66754 5.39637 2.66754C8.69772 2.66632 11.9991 2.66511 15.3017 2.66754C16.806 2.66875 18.0115 3.8305 18.0165 5.28026C18.0203 6.73608 18.0178 8.1919 18.0165 9.64772C18.0165 9.92242 18.004 9.92847 17.7564 9.79294C13.4909 7.46702 8.06996 9.98293 7.27214 14.6723C6.92825 16.6932 7.42095 18.5218 8.74399 20.1325C8.75899 20.1495 8.77525 20.1664 8.7865 20.1845C8.81902 20.239 8.90905 20.2802 8.86529 20.354C8.83277 20.4096 8.75274 20.3854 8.69272 20.3866C8.33007 20.3879 7.96742 20.3866 7.60477 20.3866C6.87948 20.3866 6.15418 20.3891 5.42888 20.3866C3.88325 20.3806 2.67151 19.2067 2.669 17.7086C2.66525 15.6404 2.669 13.5723 2.669 11.5053H2.6665ZM10.3459 6.96722C10.9699 6.96722 11.5952 6.96722 12.2192 6.96722C12.8894 6.96722 13.561 6.97448 14.2312 6.9648C14.7752 6.95754 15.1303 6.50736 14.9715 6.04992C14.8677 5.7498 14.5814 5.56707 14.19 5.56707C11.6302 5.56586 9.06912 5.56586 6.50932 5.56707C6.40303 5.56707 6.29299 5.58401 6.19044 5.61306C5.88407 5.69898 5.69274 5.95432 5.69274 6.26412C5.69274 6.57392 5.88282 6.82684 6.18544 6.92003C6.31925 6.96117 6.4568 6.96843 6.59686 6.96843C7.84612 6.96722 9.09538 6.96843 10.3446 6.96843L10.3459 6.96722ZM8.35508 9.83287C8.99409 9.83287 9.6331 9.83892 10.2721 9.83045C10.7361 9.8244 11.0449 9.54122 11.0499 9.14308C11.0537 8.73042 10.7461 8.44482 10.2709 8.43393C9.97074 8.42667 9.67062 8.43151 9.37049 8.43151C8.4151 8.43151 7.46096 8.42788 6.50557 8.43272C5.99912 8.43514 5.68524 8.72195 5.69399 9.15518C5.70274 9.55091 6.01412 9.82561 6.48306 9.83166C7.10707 9.83892 7.73107 9.83287 8.35383 9.83287H8.35508ZM6.87697 12.6937C7.0533 12.6937 7.23087 12.6961 7.40719 12.6925C7.45971 12.6913 7.51348 12.6743 7.56475 12.6598C7.89489 12.5702 8.09247 12.3137 8.08747 11.9845C8.08372 11.6699 7.88489 11.4024 7.556 11.3419C7.11707 11.2609 6.66689 11.2609 6.22796 11.3419C5.88782 11.4049 5.69274 11.6747 5.69399 12.0039C5.69399 12.3306 5.89782 12.5763 6.23421 12.6671C6.4468 12.7239 6.66189 12.6901 6.87697 12.6961V12.6937Z" fill="url(#paint0_linear_590_69)"/>
<path d="M14.2853 21.3321C11.1415 21.3297 8.58675 18.8586 8.59425 15.815C8.60176 12.8392 11.0478 10.3052 14.2991 10.304C17.5579 10.304 20.0114 12.8574 20.0002 15.8392C19.9889 18.9505 17.3341 21.3745 14.2853 21.3321ZM15.2495 16.5121C15.5734 16.5121 15.8972 16.5169 16.2211 16.5096C16.6425 16.5 16.9327 16.2095 16.9302 15.8114C16.9277 15.4193 16.6488 15.1494 16.2249 15.141C15.9172 15.1349 15.6084 15.1313 15.2995 15.141C15.0969 15.147 15.0056 15.0877 15.0169 14.8747C15.0331 14.5552 15.0294 14.2333 15.0169 13.9126C15.0019 13.4915 14.6905 13.1829 14.2966 13.1817C13.9027 13.1817 13.5838 13.4879 13.575 13.9102C13.5638 14.5286 13.5638 15.1482 13.575 15.7678C13.5825 16.2361 13.8839 16.5084 14.3691 16.5121C14.6617 16.5145 14.9544 16.5121 15.2482 16.5121H15.2495Z" fill="url(#paint1_linear_590_69)"/>
</g>
<defs>
<linearGradient id="paint0_linear_590_69" x1="10.3425" y1="2.66614" x2="10.3425" y2="20.3909" gradientUnits="userSpaceOnUse">
<stop stop-color="#5AC27C"/>
<stop offset="1" stop-color="#B2E235"/>
</linearGradient>
<linearGradient id="paint1_linear_590_69" x1="14.2972" y1="10.304" x2="14.2972" y2="21.3327" gradientUnits="userSpaceOnUse">
<stop stop-color="#5AC27C"/>
<stop offset="1" stop-color="#B2E235"/>
</linearGradient>
</defs>
</svg>
