<svg width="20" height="18" viewBox="0 0 20 18" fill="none" xmlns="http://www.w3.org/2000/svg">
<path d="M14.3987 10.5595C14.3987 12.3206 14.3998 14.0816 14.3987 15.8427C14.3975 17.0997 13.5123 17.9967 12.2733 17.9985C10.4869 18.0002 8.69993 18.0008 6.91355 17.9985C5.68933 17.9967 4.80071 17.0945 4.80071 15.852C4.799 12.272 4.80014 8.69195 4.80071 5.11252C4.80071 4.80058 4.80128 4.8 5.10091 4.8C8.09724 4.8 11.0941 4.8 14.0905 4.8C14.2963 4.8 14.3994 4.90842 14.3998 5.12525C14.3998 6.93667 14.3998 8.74866 14.3998 10.5601L14.3987 10.5595ZM10.2677 9.77822H10.2666C10.2666 9.29498 10.2746 8.81175 10.2643 8.32851C10.2535 7.82849 9.84082 7.50787 9.40364 7.64387C9.10115 7.73821 8.93222 7.99748 8.93108 8.38349C8.92879 9.32855 8.93108 10.2736 8.92936 11.2181C8.92936 11.28 8.9579 11.3686 8.89683 11.3981C8.81864 11.4351 8.77755 11.3425 8.73018 11.2956C8.50132 11.0688 8.27988 10.8338 8.04873 10.6099C7.74853 10.3193 7.33589 10.3135 7.07564 10.5873C6.82052 10.8552 6.82851 11.2656 7.1133 11.5584C7.7725 12.2361 8.43625 12.9103 9.10572 13.5776C9.40764 13.8785 9.79117 13.8797 10.0948 13.5776C10.7591 12.9155 11.4183 12.2471 12.0707 11.5723C12.3646 11.2684 12.3669 10.85 12.1009 10.5855C11.8355 10.3216 11.424 10.3396 11.1261 10.6336C10.8967 10.8599 10.6735 11.0925 10.4452 11.3205C10.407 11.3587 10.3716 11.4282 10.3094 11.4039C10.2438 11.3784 10.27 11.3032 10.27 11.2499C10.2677 10.7592 10.2689 10.269 10.2689 9.77822H10.2677Z" fill="url(#paint0_linear_588_57)"/>
<path d="M9.62212 0.000468392C12.0631 0.000468392 14.5046 -0.000695694 16.9456 0.00163248C18.0651 0.00279656 18.9471 0.690189 19.1662 1.72972C19.1927 1.8566 19.1976 1.98931 19.1976 2.1191C19.1995 3.50553 19.2019 4.89254 19.1976 6.27896C19.1945 7.47273 18.2258 8.38829 16.9665 8.39585C16.7825 8.39702 16.5979 8.39236 16.4138 8.39644C16.2815 8.39993 16.2169 8.35627 16.2175 8.22182C16.22 7.16192 16.2206 6.10202 16.2175 5.04212C16.2175 4.92222 16.2815 4.88206 16.388 4.84947C16.7739 4.73131 16.9948 4.43738 16.9425 4.12424C16.8834 3.76803 16.5923 3.53405 16.1867 3.51775C16.1486 3.51601 16.1098 3.51717 16.0716 3.51717C11.7572 3.51717 7.44336 3.51717 3.12891 3.51717C2.69501 3.51717 2.42297 3.66268 2.3048 3.95312C2.15585 4.32039 2.35588 4.71967 2.76579 4.83608C2.92458 4.8809 2.98612 4.94434 2.98551 5.10498C2.97874 6.12123 2.97751 7.13748 2.98551 8.15372C2.98735 8.34813 2.91842 8.40982 2.71962 8.39876C2.35342 8.37897 1.98537 8.42146 1.62224 8.32135C0.659646 8.05478 0.00540158 7.2533 0.0029397 6.30341C-0.000137652 4.89487 -0.00198406 3.48632 0.00355517 2.07778C0.00786346 0.929991 0.988923 0.00454269 2.20632 0.00221452C4.67805 -0.00185978 7.14978 0.00105043 9.62212 0.000468392Z" fill="url(#paint1_linear_588_57)"/>
<defs>
<linearGradient id="paint0_linear_588_57" x1="9.5998" y1="4.8" x2="9.5998" y2="18" gradientUnits="userSpaceOnUse">
<stop stop-color="#5AC27C"/>
<stop offset="1" stop-color="#B2E235"/>
</linearGradient>
<linearGradient id="paint1_linear_588_57" x1="9.6" y1="0" x2="9.6" y2="8.4" gradientUnits="userSpaceOnUse">
<stop stop-color="#5AC27C"/>
</linearGradient>
</defs>
</svg>
