<svg width="20" height="18" viewBox="0 0 20 18" fill="none" xmlns="http://www.w3.org/2000/svg">
<path fill-rule="evenodd" clip-rule="evenodd" d="M14.7991 12.3206C14.7989 11.7336 14.7988 11.1465 14.7988 10.5595L14.8 10.5601V5.12525C14.7996 4.90842 14.6965 4.8 14.4906 4.8H5.50106C5.20143 4.8 5.20086 4.80058 5.20086 5.11252C5.20076 5.70899 5.20065 6.30549 5.20054 6.902C5.19998 9.8851 5.19943 12.8685 5.20086 15.852C5.20086 17.0945 6.08948 17.9967 7.3137 17.9985C9.10008 18.0008 10.887 18.0002 12.6734 17.9985C13.9125 17.9967 14.7977 17.0997 14.7988 15.8427C14.7996 14.6687 14.7993 13.4946 14.7991 12.3206ZM9.62702 12.2397C9.62563 12.5849 9.62423 12.93 9.63157 13.2752C9.64241 13.7752 10.055 14.0958 10.4922 13.9598C10.7947 13.8655 10.9636 13.6062 10.9648 13.2202C10.966 12.7162 10.9659 12.2121 10.9658 11.7081C10.9658 11.2672 10.9657 10.8263 10.9665 10.3856C10.9665 10.371 10.9649 10.3549 10.9633 10.3384C10.958 10.2852 10.9524 10.2282 10.999 10.2056C11.059 10.1772 11.0971 10.225 11.133 10.27C11.1439 10.2837 11.1546 10.2971 11.1657 10.3081C11.2638 10.4053 11.3605 10.504 11.4572 10.6027C11.5861 10.7343 11.7151 10.8659 11.8471 10.9939C12.1473 11.2844 12.56 11.2902 12.8202 11.0164C13.0753 10.7485 13.0674 10.3382 12.7826 10.0453C12.1234 9.36763 11.4596 8.69341 10.7901 8.02614C10.4882 7.7252 10.1047 7.72404 9.80107 8.02614C9.13674 8.6882 8.47755 9.35663 7.82521 10.0314C7.53128 10.3353 7.529 10.7537 7.79496 11.0182C8.06035 11.2821 8.47184 11.2641 8.76976 10.9701C8.89918 10.8425 9.02661 10.7128 9.15408 10.5831C9.25259 10.4829 9.35113 10.3826 9.45064 10.2832C9.4589 10.2749 9.46703 10.2652 9.47532 10.2553C9.50542 10.2194 9.53771 10.1808 9.58648 10.1998C9.63788 10.2198 9.63292 10.2702 9.62836 10.3168C9.62709 10.3297 9.62586 10.3422 9.62586 10.3538C9.62814 10.8445 9.62814 11.3347 9.62814 11.8255C9.62814 11.9636 9.62758 12.1016 9.62702 12.2397Z" fill="white" fill-opacity="0.54"/>
<path d="M10.022 0.000468392C12.463 0.000468392 14.9045 -0.000695694 17.3455 0.00163248C18.465 0.00279656 19.347 0.690189 19.5661 1.72972C19.5926 1.8566 19.5975 1.98931 19.5975 2.1191C19.5994 3.50553 19.6018 4.89254 19.5975 6.27896C19.5944 7.47273 18.6257 8.38829 17.3664 8.39585C17.1824 8.39702 16.9978 8.39236 16.8137 8.39644C16.6814 8.39993 16.6168 8.35627 16.6174 8.22182C16.6199 7.16192 16.6205 6.10202 16.6174 5.04212C16.6174 4.92222 16.6814 4.88206 16.7879 4.84947C17.1738 4.73131 17.3947 4.43738 17.3424 4.12424C17.2833 3.76803 16.9922 3.53405 16.5866 3.51775C16.5485 3.51601 16.5097 3.51717 16.4715 3.51717C12.1571 3.51717 7.84326 3.51717 3.52882 3.51717C3.09491 3.51717 2.82287 3.66268 2.7047 3.95312C2.55576 4.32039 2.75578 4.71967 3.16569 4.83608C3.32448 4.8809 3.38603 4.94434 3.38541 5.10498C3.37864 6.12123 3.37741 7.13748 3.38541 8.15372C3.38726 8.34813 3.31832 8.40982 3.11953 8.39876C2.75332 8.37897 2.38527 8.42146 2.02214 8.32135C1.05955 8.05478 0.405304 7.2533 0.402842 6.30341C0.399765 4.89487 0.397918 3.48632 0.403458 2.07778C0.407766 0.929991 1.38883 0.00454269 2.60623 0.00221452C5.07795 -0.00185978 7.54968 0.00105043 10.022 0.000468392Z" fill="white" fill-opacity="0.54"/>
</svg>
