<svg width="20" height="18" viewBox="0 0 20 18" fill="none" xmlns="http://www.w3.org/2000/svg">
<path d="M14.7986 10.5596C14.7986 12.3206 14.7997 14.0817 14.7986 15.8428C14.7974 17.0998 13.9122 17.9968 12.6732 17.9985C10.8868 18.0003 9.09983 18.0008 7.31345 17.9985C6.08924 17.9968 5.20061 17.0945 5.20061 15.852C5.1989 12.272 5.20004 8.69199 5.20061 5.11256C5.20061 4.80063 5.20118 4.80005 5.50081 4.80005C8.49714 4.80005 11.494 4.80005 14.4904 4.80005C14.6962 4.80005 14.7993 4.90846 14.7997 5.12529C14.7997 6.93671 14.7997 8.74871 14.7997 10.5601L14.7986 10.5596ZM10.6676 9.77827H10.6665C10.6665 9.29503 10.6745 8.81179 10.6642 8.32855C10.6534 7.82853 10.2407 7.50792 9.80354 7.64392C9.50106 7.73825 9.33212 7.99752 9.33098 8.38353C9.3287 9.3286 9.33098 10.2737 9.32927 11.2181C9.32927 11.2801 9.3578 11.3686 9.29673 11.3981C9.21854 11.4352 9.17745 11.3426 9.13008 11.2957C8.90122 11.0688 8.67978 10.8339 8.44863 10.6099C8.14843 10.3194 7.73579 10.3136 7.47554 10.5873C7.22042 10.8553 7.22841 11.2656 7.51321 11.5584C8.1724 12.2361 8.83616 12.9103 9.50562 13.5776C9.80754 13.8786 10.1911 13.8797 10.4947 13.5776C11.159 12.9156 11.8182 12.2471 12.4706 11.5723C12.7645 11.2685 12.7668 10.8501 12.5008 10.5856C12.2354 10.3217 11.8239 10.3396 11.526 10.6336C11.2966 10.8599 11.0734 11.0926 10.8451 11.3206C10.8069 11.3588 10.7715 11.4282 10.7093 11.4039C10.6437 11.3785 10.6699 11.3032 10.6699 11.25C10.6676 10.7592 10.6688 10.269 10.6688 9.77827H10.6676Z" fill="white" fill-opacity="0.54"/>
<path d="M10.022 0.000468392C12.463 0.000468392 14.9045 -0.000695694 17.3455 0.00163248C18.465 0.00279656 19.347 0.690189 19.5661 1.72972C19.5926 1.8566 19.5975 1.98931 19.5975 2.1191C19.5994 3.50553 19.6018 4.89254 19.5975 6.27896C19.5944 7.47273 18.6257 8.38829 17.3664 8.39585C17.1824 8.39702 16.9978 8.39236 16.8137 8.39644C16.6814 8.39993 16.6168 8.35627 16.6174 8.22182C16.6199 7.16192 16.6205 6.10202 16.6174 5.04212C16.6174 4.92222 16.6814 4.88206 16.7879 4.84947C17.1738 4.73131 17.3947 4.43738 17.3424 4.12424C17.2833 3.76803 16.9922 3.53405 16.5866 3.51775C16.5485 3.51601 16.5097 3.51717 16.4715 3.51717C12.1571 3.51717 7.84326 3.51717 3.52882 3.51717C3.09491 3.51717 2.82287 3.66268 2.7047 3.95312C2.55576 4.32039 2.75578 4.71967 3.16569 4.83608C3.32448 4.8809 3.38603 4.94434 3.38541 5.10498C3.37864 6.12123 3.37741 7.13748 3.38541 8.15372C3.38726 8.34813 3.31832 8.40982 3.11953 8.39876C2.75332 8.37897 2.38527 8.42146 2.02214 8.32135C1.05955 8.05478 0.405304 7.2533 0.402842 6.30341C0.399765 4.89487 0.397918 3.48632 0.403458 2.07778C0.407766 0.929991 1.38883 0.00454269 2.60623 0.00221452C5.07795 -0.00185978 7.54968 0.00105043 10.022 0.000468392Z" fill="white" fill-opacity="0.54"/>
</svg>
